<svg xmlns="http://www.w3.org/2000/svg" xmlns:xlink="http://www.w3.org/1999/xlink" viewBox="0 0 295.46 163.25"><defs><style>.cls-1{fill:#7367f0;}.cls-2,.cls-3{opacity:0.5;isolation:isolate;}.cls-2{fill:url(#linear-gradient);}.cls-3{fill:url(#linear-gradient-2);}</style><linearGradient id="linear-gradient" x1="119.99" y1="-369.61" x2="140.53" y2="-389.38" gradientTransform="matrix(1, 0, 0, -1, 0, -319.15)" gradientUnits="userSpaceOnUse"><stop offset="0" stop-color="#fff" stop-opacity="0"/><stop offset="1" stop-color="#fff" stop-opacity="0.2"/></linearGradient><linearGradient id="linear-gradient-2" x1="-4163.09" y1="1008.13" x2="-4142.54" y2="988.36" gradientTransform="matrix(-1, 0, 0, 1, -3986.34, -902.87)" xlink:href="#linear-gradient"/></defs><g id="Layer_2" data-name="Layer 2"><g id="Layer_1-2" data-name="Layer 1"><g id="Layer_2-2" data-name="Layer 2"><g id="Layer_1-2-2" data-name="Layer 1-2"><path class="cls-1" d="M210.11.92l-62,62-63-63L0,85.11l78.14,78.14,132-132,55,55-46.32,46.32-55-55L148.62,92.77,218.77,163l76.69-76.69Zm-132,132L30.37,85.11,85.11,30.37l47.77,47.77Z"/><polygon class="cls-2" points="128.15 43.04 148.07 62.96 132.88 78.14 112.96 58.22 128.15 43.04"/><polygon class="cls-3" points="168.6 112.65 148.63 92.77 163.81 77.59 183.75 97.54 168.6 112.65"/></g></g></g></g></svg>