<svg xmlns="http://www.w3.org/2000/svg" xmlns:xlink="http://www.w3.org/1999/xlink" viewBox="0 0 611.03 337.64"><defs><style>.cls-1{fill:#fff;}.cls-2,.cls-3{opacity:0.4;}.cls-2{fill:url(#linear-gradient);}.cls-3{fill:url(#linear-gradient-2);}</style><linearGradient id="linear-gradient" x1="289.73" y1="145.13" x2="246.79" y2="102.19" gradientUnits="userSpaceOnUse"><stop offset="0" stop-color="#bababa" stop-opacity="0.5"/><stop offset="1" stop-color="#fff" stop-opacity="0"/></linearGradient><linearGradient id="linear-gradient-2" x1="324.03" y1="177.21" x2="365.95" y2="219.14" xlink:href="#linear-gradient"/></defs><g id="Layer_2" data-name="Layer 2"><g id="Layer_1-2" data-name="Layer 1"><path class="cls-1" d="M434.53,1.91l-128.3,128.3L176,0,0,176,161.63,337.64l272.9-272.9L548.2,178.42,452.42,274.2,338.75,160.53l-31.42,31.41L452.42,337,611,178.42ZM161.63,274.82,62.83,176,176,62.83l98.8,98.8Z"/><polygon class="cls-2" points="264.97 89.03 306.23 130.21 274.82 161.63 233.6 120.41 264.97 89.03"/><polygon class="cls-3" points="348.51 233.03 307.25 191.85 338.67 160.44 379.89 201.66 348.51 233.03"/></g></g></svg>